<svg xmlns="http://www.w3.org/2000/svg" viewBox="0 0 1346 296" width="1346" height="296"><defs><radialGradient id="5218738473459418571" cx="142.34696898327397" cy="304.2531912149943" r="1330.087089877193" gradientTransform="matrix(0.000742556,0,0,0.003367748,-0.086356574,-0.962790978)"><stop offset="0.354652" stop-color="#4063d8" /><stop offset="1" stop-color="#ca3d33" /></radialGradient></defs><g transform="matrix(1,0,0,1,-263.002467536,-322.574431503)">
<g>
	<g transform="matrix(1,0,0,1,4.913650588,-34.504957763)">
		<g transform="matrix(1,0,0,1,141.792418122,71.193651868)">
			<path d="M116.296399,311.185737C116.296399,297.225583 127.636244,285.885737 141.596399,285.885737 L 1437.696399,285.885737 C1451.656554,285.885737 1462.996399,297.225583 1462.996399,311.185737 L 1462.996399,557.520112 C1462.996399,571.480267 1451.656554,582.820112 1437.696399,582.820112 L 141.596399,582.820112 C127.636244,582.820112 116.296399,571.480267 116.296399,557.520112 L 116.296399,311.185737 Z" fill="url('#5218738473459418571')" stroke="#ffffff" stroke-width="6.8"/>
		</g>
		<g transform="matrix(1,0,0,1,141.792418122,71.193651868)">
			<path d="M192.408726,490.965787C192.408726,490.965787 178.395641,354.571762 178.395641,354.571762 C178.395641,354.571762 198.574483,354.571762 198.574483,354.571762 C198.574483,354.571762 206.795493,449.860739 206.795493,449.860739 Q207.169175,453.037038 207.449437,457.614646 Q207.729698,462.192253 208.00996,466.863282 Q208.290222,471.53431 208.290222,475.084291 Q208.663904,471.53431 209.037586,466.863282 Q209.411268,462.192253 209.878371,457.614646 Q210.345474,453.037038 210.719156,449.860739 Q221.929624,354.571762 221.929624,354.571762 C221.929624,354.571762 241.547943,354.571762 241.547943,354.571762 C241.547943,354.571762 252.011046,449.860739 252.011046,449.860739 Q252.57157,453.037038 253.038672,457.614646 Q253.505775,462.192253 254.066299,466.863282 Q254.626822,471.53431 255.000504,475.084291 Q255.187345,471.53431 255.374187,466.863282 Q255.561028,462.192253 255.841289,457.614646 Q256.121551,453.037038 256.495233,449.860739 Q264.529402,354.571762 264.529402,354.571762 C264.529402,354.571762 284.521403,354.571762 284.521403,354.571762 C284.521403,354.571762 269.760954,490.965787 269.760954,490.965787 C269.760954,490.965787 243.976878,490.965787 243.976878,490.965787 C243.976878,490.965787 233.887457,395.303129 233.887457,395.303129 Q233.513774,391.753147 233.046671,386.988698 Q232.579569,382.22425 232.205886,377.459801 Q231.832204,372.695352 231.645363,369.332212 Q231.458522,372.695352 230.991419,377.459801 Q230.524316,382.22425 230.150634,386.988698 Q229.776952,391.753147 229.403269,395.303129 Q218.379643,490.965787 218.379643,490.965787 C218.379643,490.965787 192.408726,490.965787 192.408726,490.965787 C192.408726,490.965787 192.408726,490.965787 192.408726,490.965787 ZM332.165891,492.834199Q316.284395,492.834199 307.12918,484.426348 Q297.973964,476.018497 297.973964,461.818571 Q297.973964,446.68444 308.063385,438.46343 Q318.152806,430.24242 336.650078,430.24242 Q362.247313,430.24242 362.247313,430.24242 C362.247313,430.24242 362.247313,421.460887 362.247313,421.460887 Q362.247313,413.987242 357.389444,409.783316 Q352.531574,405.579391 344.123723,405.579391 Q336.463237,405.579391 331.418527,408.942531 Q326.373816,412.305672 325.43961,418.097747 Q302.644993,418.097747 302.644993,418.097747 Q304.326563,403.524138 315.723872,394.929446 Q327.121181,386.334754 344.871088,386.334754 Q363.742042,386.334754 374.672248,395.770231 Q385.602454,405.205709 385.602454,421.274046 Q385.602454,490.965787 385.602454,490.965787 C385.602454,490.965787 362.994678,490.965787 362.994678,490.965787 C362.994678,490.965787 362.994678,473.029039 362.994678,473.029039 C362.994678,473.029039 359.257855,473.029039 359.257855,473.029039 C359.257855,473.029039 362.994678,467.984328 362.994678,467.984328 Q362.994678,479.381637 354.586827,486.107918 Q346.178976,492.834199 332.165891,492.834199 Q332.165891,492.834199 332.165891,492.834199 ZM339.826377,475.271132Q349.728957,475.271132 355.988135,470.226422 Q362.247313,465.181711 362.247313,457.147543 Q362.247313,444.629187 362.247313,444.629187 C362.247313,444.629187 337.023761,444.629187 337.023761,444.629187 Q329.923798,444.629187 325.626452,448.739692 Q321.329106,452.850197 321.329106,459.576477 Q321.329106,466.863282 326.280396,471.067207 Q331.231685,475.271132 339.826377,475.271132 Q339.826377,475.271132 339.826377,475.271132 ZM440.720588,490.965787C440.720588,490.965787 406.902343,388.203166 406.902343,388.203166 C406.902343,388.203166 430.818008,388.203166 430.818008,388.203166 C430.818008,388.203166 450.436327,450.608103 450.436327,450.608103 Q452.117897,456.213337 453.706046,462.192253 Q455.294196,468.171169 456.041561,471.721151 Q456.975766,468.171169 458.470495,462.192253 Q459.965224,456.213337 461.459953,450.794944 Q480.70459,388.203166 480.70459,388.203166 C480.70459,388.203166 504.433413,388.203166 504.433413,388.203166 C504.433413,388.203166 470.80201,490.965787 470.80201,490.965787 C470.80201,490.965787 440.720588,490.965787 440.720588,490.965787 C440.720588,490.965787 440.720588,490.965787 440.720588,490.965787 ZM567.959398,492.834199Q554.880519,492.834199 545.16478,487.789488 Q535.449041,482.744778 530.124069,473.682983 Q524.799097,464.621188 524.799097,452.476515 Q524.799097,426.692439 524.799097,426.692439 Q524.799097,414.547765 530.124069,405.48597 Q535.449041,396.424175 545.16478,391.379465 Q554.880519,386.334754 567.959398,386.334754 Q580.851436,386.334754 590.473754,391.379465 Q600.096072,396.424175 605.421044,405.48597 Q610.746017,414.547765 610.746017,426.692439 Q610.746017,445.18971 610.746017,445.18971 C610.746017,445.18971 547.406873,445.18971 547.406873,445.18971 C547.406873,445.18971 547.406873,452.476515 547.406873,452.476515 Q547.406873,463.3133 552.638425,468.825113 Q557.869977,474.336927 568.146239,474.336927 Q575.993566,474.336927 580.851436,471.62773 Q585.709305,468.918534 587.017193,463.686982 Q609.998652,463.686982 609.998652,463.686982 Q607.382876,476.952703 595.892147,484.893451 Q584.401417,492.834199 567.959398,492.834199 Q567.959398,492.834199 567.959398,492.834199 ZM588.13824,432.110831C588.13824,432.110831 588.13824,426.505597 588.13824,426.505597 Q588.13824,415.855653 583.093529,410.156999 Q578.048819,404.458344 567.959398,404.458344 Q557.869977,404.458344 552.638425,410.250419 Q547.406873,416.042494 547.406873,426.692439 Q547.406873,430.616102 547.406873,430.616102 C547.406873,430.616102 589.81981,430.24242 589.81981,430.24242 C589.81981,430.24242 588.13824,432.110831 588.13824,432.110831 C588.13824,432.110831 588.13824,432.110831 588.13824,432.110831 ZM695.57189,490.965787Q685.482469,490.965787 677.915403,486.855283 Q670.348337,482.744778 666.050991,475.177712 Q661.753645,467.610646 661.753645,457.708066 Q661.753645,375.68481 661.753645,375.68481 C661.753645,375.68481 628.869606,375.68481 628.869606,375.68481 C628.869606,375.68481 628.869606,354.571762 628.869606,354.571762 C628.869606,354.571762 685.108786,354.571762 685.108786,354.571762 C685.108786,354.571762 685.108786,457.708066 685.108786,457.708066 Q685.108786,463.3133 688.378506,466.58302 Q691.648226,469.85274 697.25346,469.85274 Q728.269088,469.85274 728.269088,469.85274 C728.269088,469.85274 728.269088,490.965787 728.269088,490.965787 C728.269088,490.965787 695.57189,490.965787 695.57189,490.965787 C695.57189,490.965787 695.57189,490.965787 695.57189,490.965787 ZM792.168754,492.834199Q779.089875,492.834199 769.374136,487.789488 Q759.658397,482.744778 754.333425,473.682983 Q749.008453,464.621188 749.008453,452.476515 Q749.008453,426.692439 749.008453,426.692439 Q749.008453,414.547765 754.333425,405.48597 Q759.658397,396.424175 769.374136,391.379465 Q779.089875,386.334754 792.168754,386.334754 Q805.060792,386.334754 814.68311,391.379465 Q824.305429,396.424175 829.630401,405.48597 Q834.955373,414.547765 834.955373,426.692439 Q834.955373,445.18971 834.955373,445.18971 C834.955373,445.18971 771.61623,445.18971 771.61623,445.18971 C771.61623,445.18971 771.61623,452.476515 771.61623,452.476515 Q771.61623,463.3133 776.847781,468.825113 Q782.079333,474.336927 792.355595,474.336927 Q800.202923,474.336927 805.060792,471.62773 Q809.918661,468.918534 811.226549,463.686982 Q834.208008,463.686982 834.208008,463.686982 Q831.592233,476.952703 820.101503,484.893451 Q808.610774,492.834199 792.168754,492.834199 Q792.168754,492.834199 792.168754,492.834199 ZM812.347596,432.110831C812.347596,432.110831 812.347596,426.505597 812.347596,426.505597 Q812.347596,415.855653 807.302886,410.156999 Q802.258175,404.458344 792.168754,404.458344 Q782.079333,404.458344 776.847781,410.250419 Q771.61623,416.042494 771.61623,426.692439 Q771.61623,430.616102 771.61623,430.616102 C771.61623,430.616102 814.029166,430.24242 814.029166,430.24242 C814.029166,430.24242 812.347596,432.110831 812.347596,432.110831 C812.347596,432.110831 812.347596,432.110831 812.347596,432.110831 ZM915.297059,490.965787Q900.53661,490.965787 892.222179,482.744778 Q883.907749,474.523768 883.907749,460.137001 Q883.907749,409.316213 883.907749,409.316213 C883.907749,409.316213 856.068421,409.316213 856.068421,409.316213 C856.068421,409.316213 856.068421,388.203166 856.068421,388.203166 C856.068421,388.203166 883.907749,388.203166 883.907749,388.203166 C883.907749,388.203166 883.907749,359.24279 883.907749,359.24279 C883.907749,359.24279 907.449732,359.24279 907.449732,359.24279 C907.449732,359.24279 907.449732,388.203166 907.449732,388.203166 C907.449732,388.203166 946.87321,388.203166 946.87321,388.203166 C946.87321,388.203166 946.87321,409.316213 946.87321,409.316213 C946.87321,409.316213 907.449732,409.316213 907.449732,409.316213 C907.449732,409.316213 907.449732,460.137001 907.449732,460.137001 Q907.449732,469.85274 916.978629,469.85274 Q945.004799,469.85274 945.004799,469.85274 C945.004799,469.85274 945.004799,490.965787 945.004799,490.965787 C945.004799,490.965787 915.297059,490.965787 915.297059,490.965787 C915.297059,490.965787 915.297059,490.965787 915.297059,490.965787 ZM1012.267606,492.647358Q1000.496614,492.647358 991.715081,488.910535 Q982.933548,485.173712 977.982258,478.540852 Q973.030968,471.907992 972.657286,462.939618 Q996.012427,462.939618 996.012427,462.939618 Q996.38611,467.797487 1000.776876,470.786945 Q1005.167643,473.776403 1012.267606,473.776403 Q1020.488615,473.776403 1020.488615,473.776403 Q1029.083307,473.776403 1033.380653,470.413263 Q1037.677999,467.050123 1037.677999,461.258048 Q1037.677999,455.839655 1033.847756,452.756776 Q1030.017513,449.673898 1021.983344,448.739692 Q1009.278148,446.871281 1009.278148,446.871281 Q991.715081,444.442346 983.494072,437.529224 Q975.273062,430.616102 975.273062,416.789859 Q975.273062,402.403092 984.988801,394.462344 Q994.704539,386.521596 1013.575494,386.521596 Q1020.675457,386.521596 1020.675457,386.521596 Q1037.864841,386.521596 1048.141103,394.182082 Q1058.417365,401.842568 1059.164729,414.734606 Q1035.809588,414.734606 1035.809588,414.734606 Q1035.249065,410.624101 1031.23198,408.008326 Q1027.214896,405.39255 1020.675457,405.39255 Q1013.575494,405.39255 1013.575494,405.39255 Q1005.541325,405.39255 1001.897923,408.288587 Q998.254521,411.184625 998.254521,416.789859 Q998.254521,422.02141 1001.43082,424.543766 Q1004.607119,427.066121 1011.707082,428.187168 Q1024.972803,430.055579 1024.972803,430.055579 Q1043.283233,432.671355 1051.971346,439.864738 Q1060.659458,447.058122 1060.659458,461.071207 Q1060.659458,476.018497 1050.476617,484.332927 Q1040.293775,492.647358 1020.488615,492.647358 Q1012.267606,492.647358 1012.267606,492.647358 C1012.267606,492.647358 1012.267606,492.647358 1012.267606,492.647358 ZM1128.295948,492.834199Q1120.261779,492.834199 1115.49733,488.16317 Q1110.732881,483.492142 1110.732881,475.457974 Q1110.732881,467.423805 1115.49733,462.659356 Q1120.261779,457.894907 1128.295948,457.894907 Q1136.330116,457.894907 1141.094565,462.659356 Q1145.859014,467.423805 1145.859014,475.457974 Q1145.859014,483.492142 1141.094565,488.16317 Q1136.330116,492.834199 1128.295948,492.834199 Q1128.295948,492.834199 1128.295948,492.834199 ZM1199.669259,524.597191C1199.669259,524.597191 1199.669259,502.92362 1199.669259,502.92362 C1199.669259,502.92362 1227.134906,502.92362 1227.134906,502.92362 Q1236.476962,502.92362 1241.521673,497.878909 Q1246.566383,492.834199 1246.566383,483.678983 Q1246.566383,409.876737 1246.566383,409.876737 C1246.566383,409.876737 1205.274493,409.876737 1205.274493,409.876737 C1205.274493,409.876737 1205.274493,388.203166 1205.274493,388.203166 C1205.274493,388.203166 1269.921524,388.203166 1269.921524,388.203166 C1269.921524,388.203166 1269.921524,484.239507 1269.921524,484.239507 Q1269.921524,502.92362 1258.711057,513.760405 Q1247.500589,524.597191 1228.442793,524.597191 Q1199.669259,524.597191 1199.669259,524.597191 C1199.669259,524.597191 1199.669259,524.597191 1199.669259,524.597191 ZM1257.403169,371.013782Q1250.303206,371.013782 1246.192701,367.37038 Q1242.082196,363.726978 1242.082196,357.56122 Q1242.082196,351.395463 1246.192701,347.752061 Q1250.303206,344.108659 1257.403169,344.108659 Q1264.503132,344.108659 1268.613637,347.752061 Q1272.724141,351.395463 1272.724141,357.56122 Q1272.724141,363.726978 1268.613637,367.37038 Q1264.503132,371.013782 1257.403169,371.013782 Q1257.403169,371.013782 1257.403169,371.013782 ZM1368.199959,490.965787Q1358.110538,490.965787 1350.543472,486.855283 Q1342.976406,482.744778 1338.67906,475.177712 Q1334.381714,467.610646 1334.381714,457.708066 Q1334.381714,375.68481 1334.381714,375.68481 C1334.381714,375.68481 1301.497675,375.68481 1301.497675,375.68481 C1301.497675,375.68481 1301.497675,354.571762 1301.497675,354.571762 C1301.497675,354.571762 1357.736856,354.571762 1357.736856,354.571762 C1357.736856,354.571762 1357.736856,457.708066 1357.736856,457.708066 Q1357.736856,463.3133 1361.006575,466.58302 Q1364.276295,469.85274 1369.881529,469.85274 Q1400.897157,469.85274 1400.897157,469.85274 C1400.897157,469.85274 1400.897157,490.965787 1400.897157,490.965787 C1400.897157,490.965787 1368.199959,490.965787 1368.199959,490.965787 C1368.199959,490.965787 1368.199959,490.965787 1368.199959,490.965787 Z" fill="#ffffff"/>
		</g>
	</g>
</g></g></svg>